<svg width="42" height="42" viewBox="0 0 25 25" fill="none" xmlns="http://www.w3.org/2000/svg">
<path d="M12.0145 24.3734C5.40902 24.3734 0.0356445 18.9902 0.0356445 12.3736H0.946349C0.946349 18.4872 5.91145 23.4611 12.0145 23.4611C18.1176 23.4611 23.0833 18.4874 23.0833 12.3736H23.994C23.9937 18.9906 18.62 24.3734 12.0146 24.3734H12.0145Z" fill="#4a4a4a"/>
<path d="M14.5796 11.917H23.5386V12.8293H14.5796V11.917Z" fill="#4a4a4a"/>
<path d="M0.491211 11.917H9.45027V12.8293H0.491211V11.917Z" fill="#4a4a4a"/>
<path d="M23.9934 12.3731H23.0827C23.0827 6.25946 18.1176 1.28559 12.0145 1.28559C5.91155 1.28538 0.946348 6.25957 0.946348 12.3731H0.0356445C0.0356445 5.7561 5.4094 0.373352 12.0145 0.373352C18.6199 0.37314 23.9933 5.75626 23.9933 12.3731H23.9934Z" fill="#4a4a4a"/>
<path d="M12.0146 9.80415C13.4309 9.80415 14.5792 10.9542 14.5792 12.373V12.3732H23.5382C23.5382 5.99788 18.3792 0.82962 12.0147 0.82962C5.65047 0.82962 0.491211 5.9981 0.491211 12.3732H9.45026V12.373C9.45069 10.9542 10.5989 9.80415 12.0153 9.80415H12.0146Z" fill="#4a4a4a"/>
<path d="M12.0147 15.2461C10.4332 15.2461 9.14648 13.9573 9.14648 12.3729C9.14648 10.7886 10.4332 9.49963 12.0147 9.49963C13.5962 9.49963 14.8829 10.7886 14.8829 12.3729C14.8829 13.9575 13.5962 15.2461 12.0147 15.2461ZM12.0147 10.1082C10.768 10.1082 9.75353 11.1242 9.75353 12.3733C9.75353 13.6222 10.7678 14.6384 12.0147 14.6384C13.2616 14.6384 14.2759 13.6222 14.2759 12.3733C14.2759 11.124 13.2616 10.1082 12.0147 10.1082Z" fill="#4a4a4a"/>
<path d="M24 12.4876H14.8729V12.3735C14.8729 10.7923 13.5891 9.506 12.0108 9.506C10.4321 9.506 9.14769 10.7923 9.14769 12.3731V12.4872L0 12.4874V12.2594H8.92165C8.98179 10.6052 10.3441 9.27802 12.0103 9.27802C13.6758 9.27802 15.0381 10.605 15.0981 12.2592L23.9991 12.2594L23.9993 12.4876L24 12.4876Z" fill="#4a4a4a"/>
</svg>
